<?xml version="1.0" standalone="no"?>
<!DOCTYPE svg PUBLIC "-//W3C//DTD SVG 20010904//EN"
 "http://www.w3.org/TR/2001/REC-SVG-20010904/DTD/svg10.dtd">
<svg version="1.0" xmlns="http://www.w3.org/2000/svg"
 width="500.000000pt" height="500.000000pt" viewBox="0 0 500.000000 500.000000"
 preserveAspectRatio="xMidYMid meet">

<g transform="translate(0.000000,500.000000) scale(0.100000,-0.100000)"
fill="#000000" stroke="none">
<path d="M1139 4766 c-26 -19 -73 -61 -105 -93 -32 -32 -106 -95 -164 -141
-58 -45 -116 -92 -129 -105 l-24 -22 7 -264 c3 -146 11 -310 17 -365 7 -63 9
-186 5 -335 -21 -722 -22 -791 -17 -1031 1 -80 2 -455 2 -835 0 -379 4 -735 9
-790 22 -244 24 -299 8 -292 -12 4 -17 -4 -21 -36 -4 -25 -1 -44 5 -48 27 -17
99 -18 178 -4 107 19 156 19 419 -1 199 -15 222 -15 352 1 104 13 196 16 376
14 241 -3 600 13 728 32 38 6 94 22 124 35 30 13 90 33 133 44 64 16 430 178
473 210 13 9 270 110 281 110 5 0 43 20 84 45 41 25 82 45 91 45 9 0 43 28 75
62 33 34 82 85 110 113 27 27 68 75 90 105 21 30 55 71 75 90 37 36 71 117
126 300 48 161 38 533 -17 657 -12 27 -25 72 -30 101 -7 41 -23 72 -67 135
-77 107 -158 194 -202 217 -20 10 -50 36 -68 58 -23 29 -50 47 -100 67 -37 14
-99 47 -138 71 -38 24 -87 47 -108 51 -60 9 -47 39 36 85 84 45 130 79 223
163 85 76 130 156 191 338 36 109 37 116 37 252 -1 150 -24 294 -65 398 -31
78 -121 197 -237 314 -92 91 -116 109 -206 154 -95 47 -109 51 -207 59 -57 5
-120 14 -139 20 -19 6 -87 18 -150 26 -115 16 -614 23 -1310 17 -135 -1 -348
0 -475 3 l-230 5 -46 -35z m1976 3 c66 -5 166 -21 221 -34 56 -14 129 -25 162
-25 66 0 151 -24 179 -49 10 -10 40 -28 68 -42 96 -47 314 -287 364 -400 11
-25 32 -92 47 -150 23 -89 27 -125 28 -254 1 -148 0 -152 -36 -256 -50 -147
-89 -228 -129 -274 -67 -76 -211 -187 -289 -222 -77 -34 -77 -35 -75 -71 3
-36 3 -37 52 -43 36 -5 68 -19 115 -51 36 -25 92 -55 124 -67 38 -15 74 -39
99 -66 22 -23 57 -50 77 -59 20 -10 64 -51 100 -94 132 -160 158 -201 158
-250 0 -16 11 -54 25 -84 30 -67 43 -151 52 -340 7 -172 -3 -254 -52 -397 -59
-177 -81 -216 -141 -256 -35 -24 -62 -51 -79 -84 -16 -29 -55 -71 -98 -108
-142 -118 -227 -165 -372 -204 -55 -15 -88 -28 -74 -28 69 -2 235 57 312 111
16 11 30 18 33 16 10 -11 -194 -128 -222 -128 -18 0 -313 -127 -332 -143 -8
-6 -35 -18 -60 -27 l-47 -17 92 94 c50 51 90 93 87 93 -2 0 11 24 30 53 82
128 106 189 127 313 26 160 25 366 -1 538 -17 108 -18 140 -9 193 6 35 9 80 6
101 -6 49 -36 169 -52 207 -7 17 -20 50 -29 75 -20 57 -103 161 -181 229 -72
62 -183 119 -245 126 l-45 5 56 -18 c104 -35 179 -83 270 -174 67 -67 95 -104
119 -155 17 -38 38 -80 46 -95 8 -14 14 -39 14 -56 0 -16 7 -49 15 -72 8 -23
15 -70 15 -104 l-1 -61 -29 88 c-30 89 -33 93 -176 265 -20 24 -34 45 -32 48
9 8 114 -112 132 -150 10 -21 20 -35 23 -33 18 19 -145 215 -168 202 -5 -4 -9
-2 -9 3 0 12 -50 45 -67 45 -7 0 -13 4 -13 9 0 23 -358 168 -416 168 -19 0
-33 32 -24 56 10 25 76 54 114 50 17 -2 30 2 33 11 3 7 24 23 46 35 72 36 222
207 308 350 30 49 52 102 62 145 38 167 38 174 22 263 -9 47 -19 126 -24 176
-4 49 -11 96 -15 103 -4 7 -9 37 -10 67 -2 46 -13 77 -67 182 -35 69 -78 140
-95 156 -35 36 -178 113 -278 150 -41 16 -127 34 -215 46 -80 12 -157 23 -171
26 -40 8 -270 24 -449 30 -124 4 -167 8 -178 19 -11 12 -55 16 -211 18 -261 3
-435 -2 -446 -14 -6 -5 -29 -9 -53 -9 l-43 0 0 98 c0 151 8 200 34 204 58 8
1786 6 1891 -3z m-1948 -156 c-3 -76 -6 -139 -6 -140 -1 0 -28 1 -62 4 -34 3
-106 0 -160 -7 -55 -7 -102 -11 -104 -8 -3 3 29 35 72 70 43 36 116 99 162
141 47 43 89 77 94 77 5 0 7 -57 4 -137z m648 -165 c83 -6 184 -11 225 -10 41
1 69 -1 63 -6 -7 -4 83 -7 200 -6 256 2 220 -11 -58 -20 -109 -4 -204 -11
-211 -17 -8 -6 -9 -23 -4 -52 5 -23 12 -95 16 -159 l7 -118 -28 0 c-16 0 -79
7 -142 16 -99 15 -145 15 -360 5 -137 -6 -268 -14 -291 -17 -24 -3 -47 -2 -51
2 -5 5 -2 50 6 99 8 51 12 130 10 182 l-4 91 86 7 c47 3 122 10 166 15 82 9
113 8 370 -12z m-641 -90 c6 -57 4 -111 -7 -200 -13 -97 -14 -133 -5 -168 8
-31 10 -146 7 -365 -2 -176 -3 -436 -3 -577 1 -176 -2 -258 -9 -258 -6 0 -3
-6 6 -12 12 -10 19 -41 27 -123 12 -129 13 -275 3 -275 -5 0 -8 -316 -7 -703
0 -395 -4 -738 -9 -784 l-10 -83 -56 -42 c-31 -23 -119 -97 -196 -163 l-140
-121 -1 270 c-1 149 -9 413 -18 586 -20 382 -22 655 -6 853 9 115 9 181 0 295
-8 95 -10 196 -5 287 20 340 23 889 8 1353 l-8 263 25 24 c31 29 49 31 240 25
l155 -5 9 -77z m1578 23 c13 -5 68 -21 123 -36 151 -40 215 -64 266 -101 25
-18 48 -31 51 -29 18 18 139 -179 152 -247 4 -20 11 -38 17 -40 6 -2 12 -56
15 -128 7 -206 -28 -336 -122 -451 -61 -75 -142 -135 -240 -179 -88 -40 -77
-48 14 -11 91 38 143 74 212 147 69 73 92 111 118 194 44 137 40 131 41 78 1
-27 6 -48 11 -48 6 0 10 6 11 13 3 31 17 -44 18 -93 0 -39 -2 -51 -9 -40 -7
11 -9 2 -7 -30 5 -59 -42 -222 -75 -264 -14 -17 -32 -45 -41 -61 -8 -17 -29
-43 -46 -59 -17 -17 -31 -35 -31 -42 0 -18 -139 -153 -179 -173 -65 -34 -141
-45 -213 -32 -73 12 -200 13 -238 1 -16 -5 19 -9 95 -10 66 0 138 -4 159 -8
l40 -7 -27 -18 c-19 -12 -27 -26 -27 -45 0 -45 23 -67 87 -82 32 -7 67 -19 79
-26 11 -7 59 -26 107 -43 105 -37 156 -62 181 -90 23 -25 44 -28 25 -3 -24 31
92 -82 123 -121 54 -68 25 -47 -41 29 -36 40 -67 71 -70 69 -2 -3 9 -20 25
-38 57 -61 109 -131 155 -206 25 -42 50 -75 57 -74 19 4 56 -132 47 -175 -3
-20 -10 -72 -14 -114 -6 -61 -14 -85 -35 -113 -15 -19 -41 -63 -58 -98 -16
-34 -50 -83 -75 -109 -26 -26 -42 -51 -38 -57 8 -15 -12 -41 -32 -41 -8 0 -53
-27 -100 -60 -94 -65 -116 -73 -108 -37 19 81 37 232 42 348 l6 135 -36 85
c-19 46 -38 100 -42 119 -14 71 -131 219 -210 266 -105 61 -238 90 -469 104
-95 5 -180 12 -189 16 -8 3 -55 9 -104 12 l-88 7 -3 174 c-2 133 1 176 10 183
7 4 106 8 220 8 127 0 209 4 213 10 4 6 -23 10 -72 11 l-78 0 80 19 c189 43
338 125 384 210 13 25 39 69 57 97 19 29 34 64 34 77 0 14 5 28 10 31 6 3 10
32 10 64 0 32 5 72 11 89 8 23 6 58 -6 142 -21 139 -36 191 -77 259 -26 43
-45 60 -93 85 -67 35 -161 104 -158 116 5 18 -260 74 -396 84 -41 4 -89 11
-107 18 l-32 11 -6 131 c-4 72 -9 143 -12 158 -5 25 -2 27 33 33 21 4 43 8 48
10 24 8 596 4 617 -4z m-1109 -308 c-7 -2 -21 -2 -30 0 -10 3 -4 5 12 5 17 0
24 -2 18 -5z m197 -28 c69 -8 145 -16 170 -17 l45 -3 -3 -140 c-1 -77 -7 -192
-12 -255 -14 -174 -24 -506 -16 -526 6 -15 9 -16 16 -4 7 11 13 12 35 2 29
-14 152 -14 235 -2 48 8 44 8 -29 5 -46 -3 -117 0 -158 7 l-75 11 6 266 c3
146 9 343 12 438 l6 171 97 -5 c119 -6 296 -30 360 -49 26 -7 79 -37 117 -65
38 -28 88 -59 110 -69 69 -30 125 -121 145 -234 6 -37 9 -69 6 -72 -3 -3 1
-29 10 -57 12 -40 13 -59 4 -88 -6 -20 -11 -56 -11 -81 0 -31 -7 -54 -25 -78
-28 -38 -33 -65 -10 -56 8 3 15 3 15 0 0 -2 -11 -9 -25 -14 -16 -6 -23 -15
-19 -24 3 -8 -6 -31 -21 -50 -15 -20 -25 -42 -22 -50 7 -19 -66 -86 -133 -123
-117 -63 -253 -95 -465 -109 -131 -8 -324 -9 -345 -1 -22 9 -337 27 -470 27
-63 1 -134 3 -157 6 l-41 6 -7 114 c-4 63 -2 271 4 462 10 288 9 371 -3 487
-7 77 -12 143 -10 146 3 6 222 28 324 32 167 7 223 6 340 -8z m-110 -1290 c36
-2 128 -4 205 -5 112 -1 135 -4 116 -13 l-23 -11 4 -179 3 -179 -70 9 c-38 4
-103 8 -142 8 -40 0 -73 4 -73 9 0 9 -465 0 -506 -10 -20 -5 -21 -1 -27 148
-4 84 -10 172 -13 196 l-7 43 234 -7 c129 -3 263 -8 299 -9z m-2 8 c-10 -2
-26 -2 -35 0 -10 3 -2 5 17 5 19 0 27 -2 18 -5z m-378 -402 c0 -9 379 -24 555
-22 61 1 116 -2 124 -7 11 -8 10 -43 -4 -218 -15 -170 -17 -264 -11 -504 7
-279 15 -402 28 -415 3 -3 25 -5 49 -5 24 0 193 2 375 4 182 1 337 7 345 12
15 10 289 13 289 3 0 -41 -45 -104 -164 -229 -32 -34 -136 -84 -226 -108 -99
-27 -360 -43 -500 -31 -66 6 -179 6 -304 -1 -109 -5 -312 -10 -450 -10 l-252
0 2 683 c1 375 2 716 3 759 l1 76 63 10 c34 5 65 10 70 11 4 0 7 -3 7 -8z
m885 -43 c33 -6 84 -10 114 -9 80 2 350 -29 396 -46 22 -8 64 -23 94 -34 30
-10 59 -23 66 -29 6 -5 15 -7 18 -4 9 9 97 -85 139 -150 21 -33 43 -78 49
-100 6 -23 24 -76 41 -119 27 -69 30 -88 29 -174 -1 -82 -50 -376 -68 -405 -2
-4 -14 -8 -26 -8 -83 0 -251 -12 -297 -20 -33 -6 -148 -7 -296 -3 -172 4 -254
3 -288 -6 -26 -6 -68 -9 -95 -5 l-48 6 -12 67 c-20 104 -26 543 -11 813 l13
238 61 0 c34 0 88 -5 121 -12z m1416 -578 c9 -38 13 -114 11 -244 -1 -210 -18
-329 -58 -413 -13 -28 -24 -55 -24 -59 0 -4 -17 -30 -39 -58 -21 -28 -46 -64
-56 -79 -10 -16 -30 -33 -44 -39 -15 -6 -21 -12 -14 -15 19 -7 -49 -91 -105
-131 -121 -86 -208 -128 -377 -181 -138 -42 -215 -58 -320 -66 -49 -3 -110 -9
-135 -12 -25 -3 -193 -7 -375 -8 -196 -1 -371 -7 -430 -14 -81 -10 -139 -10
-310 1 -243 15 -348 16 -497 4 -72 -6 -108 -6 -108 1 0 30 377 363 412 363 10
0 18 4 18 9 0 6 114 10 272 10 150 1 320 5 378 10 66 6 182 6 312 0 139 -7
227 -6 270 1 34 5 122 10 193 11 72 1 119 4 106 6 -19 4 -6 13 63 43 174 77
313 208 341 321 5 19 21 31 68 52 34 15 94 48 133 75 75 49 184 163 184 191 0
9 23 60 50 114 39 76 50 108 50 145 1 56 11 43 31 -38z"/>
<path d="M3558 853 c6 -2 18 -2 25 0 6 3 1 5 -13 5 -14 0 -19 -2 -12 -5z"/>
<path d="M3222 4153 c37 -69 48 -83 48 -62 0 14 -66 119 -75 119 -3 0 9 -26
27 -57z"/>
<path d="M2455 3120 c-77 -5 -74 -5 65 -12 185 -10 288 -10 293 0 3 4 -47 7
-111 8 -65 0 -128 3 -142 5 -14 3 -61 2 -105 -1z"/>
<path d="M2867 828 c-16 -10 435 -9 493 1 26 5 -66 8 -218 7 -145 -1 -269 -4
-275 -8z"/>
</g>
</svg>
