<?xml version="1.0" encoding="UTF-8"?>
<!DOCTYPE svg PUBLIC "-//W3C//DTD SVG 1.1//EN" "http://www.w3.org/Graphics/SVG/1.1/DTD/svg11.dtd">
<svg xmlns="http://www.w3.org/2000/svg" version="1.1" width="500px" height="500px" style="shape-rendering:geometricPrecision; text-rendering:geometricPrecision; image-rendering:optimizeQuality; fill-rule:evenodd; clip-rule:evenodd" xmlns:xlink="http://www.w3.org/1999/xlink">
<g><path style="opacity:1" fill="#fefefe" d="M -0.5,-0.5 C 166.167,-0.5 332.833,-0.5 499.5,-0.5C 499.5,166.167 499.5,332.833 499.5,499.5C 332.833,499.5 166.167,499.5 -0.5,499.5C -0.5,332.833 -0.5,166.167 -0.5,-0.5 Z"/></g>
<g><path style="opacity:1" fill="#fdfdfd" d="M 115.5,101.5 C 116.449,115.797 116.782,130.131 116.5,144.5C 115.561,164.159 115.394,183.826 116,203.5C 117.755,219.294 118.922,235.128 119.5,251C 119.165,263.685 118.498,276.351 117.5,289C 117.92,325.335 118.254,361.668 118.5,398C 118.484,404.932 117.65,411.765 116,418.5C 102.413,428.749 89.4132,439.749 77,451.5C 77.6106,433.874 77.6106,416.207 77,398.5C 75.3012,374.524 74.1345,350.524 73.5,326.5C 73.5,316.167 73.5,305.833 73.5,295.5C 73.9595,284.989 74.6262,274.489 75.5,264C 74.7227,252.339 74.0561,240.673 73.5,229C 73.7744,219.965 74.4411,210.965 75.5,202C 75.2366,196.329 74.9033,190.663 74.5,185C 75.8495,172.37 76.5162,159.703 76.5,147C 75.9848,118.253 74.9848,89.5868 73.5,61C 87.6478,49.0199 101.648,36.8533 115.5,24.5C 116.258,39.6654 116.925,54.8321 117.5,70C 115.942,80.4419 115.275,90.9419 115.5,101.5 Z"/></g>
<g><path style="opacity:1" fill="#1b1b1b" d="M 169.5,458.5 C 168.508,458.672 167.842,458.338 167.5,457.5C 182.429,455.474 197.429,455.14 212.5,456.5C 237.389,456.641 262.056,454.475 286.5,450C 307.707,443.556 328.04,435.222 347.5,425C 358.387,420.262 369.387,415.929 380.5,412C 384.732,409.725 388.732,407.225 392.5,404.5C 387.301,406.93 381.968,409.097 376.5,411C 363.261,413.598 349.927,415.598 336.5,417C 312.163,417.599 287.83,417.432 263.5,416.5C 252.275,416.422 241.109,417.089 230,418.5C 219.673,417.981 209.34,417.647 199,417.5C 172.481,418.718 145.981,419.385 119.5,419.5C 113.111,423.047 107.111,427.214 101.5,432C 92.6826,439.65 84.3493,447.817 76.5,456.5C 78.1667,456.833 79.8333,457.167 81.5,457.5C 101.825,455.166 122.159,455.166 142.5,457.5C 150.167,458.167 157.833,458.833 165.5,459.5C 160.882,460.11 156.215,460.443 151.5,460.5C 135.83,459.555 120.163,458.555 104.5,457.5C 96.5297,457.451 88.6964,458.451 81,460.5C 76.9943,460.629 73.4943,459.462 70.5,457C 71.9669,454.622 72.9669,452.122 73.5,449.5C 73.7828,450.289 74.2828,450.956 75,451.5C 75.8151,446.648 75.6484,441.981 74.5,437.5C 72.6941,400.53 72.0274,363.53 72.5,326.5C 72.8333,326.5 73.1667,326.5 73.5,326.5C 74.1345,350.524 75.3012,374.524 77,398.5C 77.6106,416.207 77.6106,433.874 77,451.5C 89.4132,439.749 102.413,428.749 116,418.5C 117.65,411.765 118.484,404.932 118.5,398C 118.254,361.668 117.92,325.335 117.5,289C 118.498,276.351 119.165,263.685 119.5,251C 118.922,235.128 117.755,219.294 116,203.5C 115.394,183.826 115.561,164.159 116.5,144.5C 117.167,133.833 117.833,123.167 118.5,112.5C 119.077,118.807 119.41,125.14 119.5,131.5C 117.798,157.478 117.298,183.478 118,209.5C 119.95,222.601 121.117,235.768 121.5,249C 120.933,261.505 120.266,274.005 119.5,286.5C 119.713,329.86 119.713,373.193 119.5,416.5C 148.032,416.833 176.532,416.166 205,414.5C 213.846,414.277 222.513,414.943 231,416.5C 240.94,415.042 250.94,414.375 261,414.5C 288.517,415.917 316.017,415.751 343.5,414C 373.115,414.437 397.615,403.604 417,381.5C 418,379.5 419,377.5 420,375.5C 423.667,372.833 427.333,370.167 431,367.5C 445.714,339.704 449.714,310.371 443,279.5C 439.45,272.186 437.117,264.519 436,256.5C 429.546,247.711 422.713,239.211 415.5,231C 413.044,229.289 410.377,227.956 407.5,227C 405.539,224.037 403.206,221.371 400.5,219C 392.49,217.163 385.49,213.496 379.5,208C 374.947,204.992 369.947,203.826 364.5,204.5C 364.519,202.94 364.852,201.44 365.5,200C 365.095,199.055 364.428,198.388 363.5,198C 378.579,191.27 391.745,181.77 403,169.5C 420.091,141.351 423.091,111.684 412,80.5C 400.747,58.5801 384.247,42.0801 362.5,31C 354.991,28.9667 347.325,27.9667 339.5,28C 328.106,24.6208 316.439,22.6208 304.5,22C 242.825,21.8459 181.159,22.0126 119.5,22.5C 118.214,37.159 118.214,51.8257 119.5,66.5C 119.16,73.5382 118.493,80.5382 117.5,87.5C 116.833,92.1667 116.167,96.8333 115.5,101.5C 115.275,90.9419 115.942,80.4419 117.5,70C 116.925,54.8321 116.258,39.6654 115.5,24.5C 101.648,36.8533 87.6478,49.0199 73.5,61C 74.9848,89.5868 75.9848,118.253 76.5,147C 76.5162,159.703 75.8495,172.37 74.5,185C 74.9033,190.663 75.2366,196.329 75.5,202C 74.4411,210.965 73.7744,219.965 73.5,229C 74.0561,240.673 74.7227,252.339 75.5,264C 74.6262,274.489 73.9595,284.989 73.5,295.5C 72.8333,303.833 72.1667,312.167 71.5,320.5C 71.2037,301.295 71.8704,282.128 73.5,263C 72.7598,252.005 72.0931,241.005 71.5,230C 71.8398,220.804 72.5064,211.638 73.5,202.5C 73.2331,196.496 72.8998,190.496 72.5,184.5C 73.9891,172.059 74.6558,159.559 74.5,147C 73.3083,122.183 72.3083,97.35 71.5,72.5C 71.8333,67.5 72.1667,62.5 72.5,57.5C 84.3388,48.8176 95.3388,39.3176 105.5,29C 109.5,26 113.5,23 117.5,20C 172.351,20.4752 227.184,20.3085 282,19.5C 291.835,19.965 301.668,20.465 311.5,21C 326.111,23.3182 340.778,25.3182 355.5,27C 364.149,29.324 372.149,32.9907 379.5,38C 392.142,48.9727 402.976,61.4727 412,75.5C 425.523,108.879 422.856,140.879 404,171.5C 393.844,181.99 382.344,190.657 369.5,197.5C 368.05,198.85 367.383,200.516 367.5,202.5C 374.281,202.441 379.947,204.941 384.5,210C 390.333,213.055 396.333,215.722 402.5,218C 405.61,223.109 409.943,226.776 415.5,229C 424.656,237.831 432.49,247.664 439,258.5C 439.333,261.167 439.667,263.833 440,266.5C 444.447,275.277 446.78,284.611 447,294.5C 447.667,304.5 447.667,314.5 447,324.5C 444.484,339.049 440.151,353.049 434,366.5C 428.26,371.244 423.594,376.91 420,383.5C 412.833,390.667 405.667,397.833 398.5,405C 369.493,417.013 340.827,430.013 312.5,444C 299.819,447.677 287.153,451.344 274.5,455C 254.337,456.25 234.17,457.416 214,458.5C 199.151,457.383 184.318,457.383 169.5,458.5 Z"/></g>
<g><path style="opacity:1" fill="#fdfdfd" d="M 118.5,112.5 C 117.629,104.2 117.295,95.8671 117.5,87.5C 118.493,80.5382 119.16,73.5382 119.5,66.5C 118.214,51.8257 118.214,37.159 119.5,22.5C 181.159,22.0126 242.825,21.8459 304.5,22C 316.439,22.6208 328.106,24.6208 339.5,28C 347.325,27.9667 354.991,28.9667 362.5,31C 384.247,42.0801 400.747,58.5801 412,80.5C 423.091,111.684 420.091,141.351 403,169.5C 391.745,181.77 378.579,191.27 363.5,198C 364.428,198.388 365.095,199.055 365.5,200C 364.852,201.44 364.519,202.94 364.5,204.5C 369.947,203.826 374.947,204.992 379.5,208C 385.49,213.496 392.49,217.163 400.5,219C 403.206,221.371 405.539,224.037 407.5,227C 410.377,227.956 413.044,229.289 415.5,231C 422.713,239.211 429.546,247.711 436,256.5C 437.117,264.519 439.45,272.186 443,279.5C 449.714,310.371 445.714,339.704 431,367.5C 427.333,370.167 423.667,372.833 420,375.5C 419,377.5 418,379.5 417,381.5C 397.615,403.604 373.115,414.437 343.5,414C 316.017,415.751 288.517,415.917 261,414.5C 250.94,414.375 240.94,415.042 231,416.5C 222.513,414.943 213.846,414.277 205,414.5C 176.532,416.166 148.032,416.833 119.5,416.5C 119.713,373.193 119.713,329.86 119.5,286.5C 120.266,274.005 120.933,261.505 121.5,249C 121.117,235.768 119.95,222.601 118,209.5C 117.298,183.478 117.798,157.478 119.5,131.5C 119.41,125.14 119.077,118.807 118.5,112.5 Z"/></g>
<g><path style="opacity:1" fill="#fdfdfd" d="M 275.5,60.5 C 282.717,62.1148 290.05,63.7815 297.5,65.5C 299.579,67.873 302.246,69.2064 305.5,69.5C 312.213,72.9498 318.379,77.2831 324,82.5C 330.07,91.4129 334.57,101.08 337.5,111.5C 337.368,119.118 337.201,126.785 337,134.5C 333.956,157.888 321.456,174.055 299.5,183C 296.568,184.145 293.568,184.978 290.5,185.5C 290.782,182.395 291.782,179.562 293.5,177C 292.07,171.214 292.403,165.547 294.5,160C 293.723,147.475 290.556,135.642 285,124.5C 281.635,119.814 277.135,116.647 271.5,115C 263.151,106.833 253.151,102 241.5,100.5C 229.947,98.2976 218.28,97.2976 206.5,97.5C 206.032,85.5873 206.032,73.754 206.5,62C 229.461,60.564 252.461,60.064 275.5,60.5 Z"/></g>
<g><path style="opacity:1" fill="#3d463c" d="M 275.5,59.5 C 283.433,59.876 290.766,61.876 297.5,65.5C 290.05,63.7815 282.717,62.1148 275.5,60.5C 275.5,60.1667 275.5,59.8333 275.5,59.5 Z"/></g>
<g><path style="opacity:1" fill="#171d17" d="M 297.5,65.5 C 300.754,65.7936 303.421,67.127 305.5,69.5C 302.246,69.2064 299.579,67.873 297.5,65.5 Z"/></g>
<g><path style="opacity:1" fill="#1c1c1c" d="M 275.5,59.5 C 275.5,59.8333 275.5,60.1667 275.5,60.5C 252.461,60.064 229.461,60.564 206.5,62C 206.032,73.754 206.032,85.5873 206.5,97.5C 218.28,97.2976 229.947,98.2976 241.5,100.5C 241.167,101.167 240.833,101.833 240.5,102.5C 229.186,101.205 217.853,100.205 206.5,99.5C 205.031,128.809 204.364,158.143 204.5,187.5C 218.49,188.631 232.49,188.631 246.5,187.5C 252.5,187.5 258.5,187.5 264.5,187.5C 261.038,188.482 257.371,188.815 253.5,188.5C 241.79,188.465 230.123,189.132 218.5,190.5C 213.83,190.712 209.33,190.045 205,188.5C 204.055,188.905 203.388,189.572 203,190.5C 202.667,190.167 202.333,189.833 202,189.5C 201.333,177.167 201.333,164.833 202,152.5C 203.229,136.666 204.396,120.833 205.5,105C 204.848,92.1565 204.014,79.3231 203,66.5C 201.574,63.9306 201.741,61.7639 203.5,60C 227.479,58.246 251.479,58.0793 275.5,59.5 Z"/></g>
<g><path style="opacity:1" fill="#fdfdfd" d="M 240.5,102.5 C 251.866,103.45 261.532,107.95 269.5,116C 278.876,118.889 285.043,125.056 288,134.5C 288.906,141.213 289.906,147.88 291,154.5C 290.644,163.007 290.477,171.341 290.5,179.5C 268.184,178.578 245.851,178.245 223.5,178.5C 223.5,179.833 223.5,181.167 223.5,182.5C 228.994,182.147 234.494,181.814 240,181.5C 252.491,183.602 264.991,183.602 277.5,181.5C 277.52,183.143 276.853,184.476 275.5,185.5C 269.676,186.668 263.842,186.668 258,185.5C 253.978,185.892 250.145,186.558 246.5,187.5C 232.49,188.631 218.49,188.631 204.5,187.5C 204.364,158.143 205.031,128.809 206.5,99.5C 217.853,100.205 229.186,101.205 240.5,102.5 Z"/></g>
<g><path style="opacity:1" fill="#737373" d="M 117.5,87.5 C 117.295,95.8671 117.629,104.2 118.5,112.5C 117.833,123.167 117.167,133.833 116.5,144.5C 116.782,130.131 116.449,115.797 115.5,101.5C 116.167,96.8333 116.833,92.1667 117.5,87.5 Z"/></g>
<g><path style="opacity:1" fill="#1d1d1d" d="M 305.5,69.5 C 312.236,71.7261 318.403,75.0594 324,79.5C 329.781,88.7271 334.781,98.3938 339,108.5C 341.197,124.986 339.197,140.986 333,156.5C 321.508,175.504 304.674,186.337 282.5,189C 272.658,189.825 262.991,189.658 253.5,188.5C 257.371,188.815 261.038,188.482 264.5,187.5C 272.228,187.811 279.895,187.311 287.5,186C 288.129,183.625 289.129,181.459 290.5,179.5C 290.477,171.341 290.644,163.007 291,154.5C 289.906,147.88 288.906,141.213 288,134.5C 285.043,125.056 278.876,118.889 269.5,116C 261.532,107.95 251.866,103.45 240.5,102.5C 240.833,101.833 241.167,101.167 241.5,100.5C 253.151,102 263.151,106.833 271.5,115C 277.135,116.647 281.635,119.814 285,124.5C 290.556,135.642 293.723,147.475 294.5,160C 292.403,165.547 292.07,171.214 293.5,177C 291.782,179.562 290.782,182.395 290.5,185.5C 293.568,184.978 296.568,184.145 299.5,183C 321.456,174.055 333.956,157.888 337,134.5C 337.201,126.785 337.368,119.118 337.5,111.5C 334.57,101.08 330.07,91.4129 324,82.5C 318.379,77.2831 312.213,72.9498 305.5,69.5 Z"/></g>
<g><path style="opacity:1" fill="#eff9ef" d="M 290.5,179.5 C 289.129,181.459 288.129,183.625 287.5,186C 279.895,187.311 272.228,187.811 264.5,187.5C 258.5,187.5 252.5,187.5 246.5,187.5C 250.145,186.558 253.978,185.892 258,185.5C 263.842,186.668 269.676,186.668 275.5,185.5C 276.853,184.476 277.52,183.143 277.5,181.5C 264.991,183.602 252.491,183.602 240,181.5C 234.494,181.814 228.994,182.147 223.5,182.5C 223.5,181.167 223.5,179.833 223.5,178.5C 245.851,178.245 268.184,178.578 290.5,179.5 Z"/></g>
<g><path style="opacity:1" fill="#fdfdfd" d="M 218.5,378.5 C 215.5,378.5 212.5,378.5 209.5,378.5C 208.167,378.5 206.833,378.5 205.5,378.5C 202.867,352.256 201.867,325.923 202.5,299.5C 203.486,295.03 203.819,290.363 203.5,285.5C 204.468,283.393 204.802,281.059 204.5,278.5C 204.5,274.167 204.5,269.833 204.5,265.5C 208.487,266.829 212.487,266.829 216.5,265.5C 222.014,266.266 227.347,267.599 232.5,269.5C 243.52,268.128 254.52,268.295 265.5,270C 273.969,273.568 282.635,276.568 291.5,279C 298.399,284.901 304.232,291.734 309,299.5C 310.673,307.52 313.34,315.187 317,322.5C 317.667,330.167 317.667,337.833 317,345.5C 315.164,355.184 313.331,364.851 311.5,374.5C 296.367,376.016 281.2,377.349 266,378.5C 250.131,377.304 234.297,377.304 218.5,378.5 Z"/></g>
<g><path style="opacity:1" fill="#5e5e5e" d="M 202.5,266.5 C 203.167,270.5 203.833,274.5 204.5,278.5C 204.802,281.059 204.468,283.393 203.5,285.5C 203.795,283.265 203.461,281.265 202.5,279.5C 202.5,275.167 202.5,270.833 202.5,266.5 Z"/></g>
<g><path style="opacity:1" fill="#3c3c3c" d="M 202.5,279.5 C 203.461,281.265 203.795,283.265 203.5,285.5C 203.819,290.363 203.486,295.03 202.5,299.5C 202.802,296.941 202.468,294.607 201.5,292.5C 201.467,288.131 201.8,283.798 202.5,279.5 Z"/></g>
<g><path style="opacity:1" fill="#171717" d="M 201.5,292.5 C 202.468,294.607 202.802,296.941 202.5,299.5C 201.867,325.923 202.867,352.256 205.5,378.5C 206.833,378.5 208.167,378.5 209.5,378.5C 212.167,379.167 214.833,379.833 217.5,380.5C 212.5,380.5 207.5,380.5 202.5,380.5C 200.453,351.182 200.119,321.849 201.5,292.5 Z"/></g>
<g><path style="opacity:1" fill="#6a6a6a" d="M 73.5,295.5 C 73.5,305.833 73.5,316.167 73.5,326.5C 73.1667,326.5 72.8333,326.5 72.5,326.5C 71.8505,324.565 71.5172,322.565 71.5,320.5C 72.1667,312.167 72.8333,303.833 73.5,295.5 Z"/></g>
<g><path style="opacity:1" fill="#191919" d="M 221.5,379.5 C 220.209,379.737 219.209,379.404 218.5,378.5C 234.297,377.304 250.131,377.304 266,378.5C 281.2,377.349 296.367,376.016 311.5,374.5C 313.331,364.851 315.164,355.184 317,345.5C 317.667,337.833 317.667,330.167 317,322.5C 313.34,315.187 310.673,307.52 309,299.5C 304.232,291.734 298.399,284.901 291.5,279C 282.635,276.568 273.969,273.568 265.5,270C 254.52,268.295 243.52,268.128 232.5,269.5C 227.347,267.599 222.014,266.266 216.5,265.5C 212.487,266.829 208.487,266.829 204.5,265.5C 204.5,269.833 204.5,274.167 204.5,278.5C 203.833,274.5 203.167,270.5 202.5,266.5C 201.957,266.44 201.624,266.107 201.5,265.5C 202.149,252.532 202.816,239.532 203.5,226.5C 204.5,226 205.5,225.5 206.5,225C 226.374,224.931 246.208,224.098 266,222.5C 285.167,223.733 304,226.899 322.5,232C 351.963,246.762 366.13,270.595 365,303.5C 362.015,311.168 360.682,319.168 361,327.5C 356.772,335.286 353.106,343.286 350,351.5C 338.825,365.011 324.658,373.844 307.5,378C 301.153,378.595 294.819,378.428 288.5,377.5C 280.782,379.387 272.949,380.387 265,380.5C 250.51,379.712 236.01,379.379 221.5,379.5 Z"/></g>
<g><path style="opacity:1" fill="#fcfdfc" d="M 250.5,225.5 C 273.914,224.393 296.914,226.893 319.5,233C 339.16,241.326 352.66,255.493 360,275.5C 360.109,280.056 361.109,284.389 363,288.5C 363.667,293.5 363.667,298.5 363,303.5C 362.867,306.525 361.867,309.192 360,311.5C 361.332,321.53 358.666,330.197 352,337.5C 350.333,341.167 348.667,344.833 347,348.5C 344.333,351.167 341.667,353.833 339,356.5C 338.544,357.744 339.044,358.577 340.5,359C 338.105,361.69 335.105,363.357 331.5,364C 326.572,368.09 321.239,371.59 315.5,374.5C 315.167,373.833 314.833,373.167 314.5,372.5C 318.556,356.393 320.056,340.059 319,323.5C 315.41,314.997 312.41,306.331 310,297.5C 301.155,281.485 287.655,271.985 269.5,269C 257.252,266.425 244.919,265.925 232.5,267.5C 227.39,265.58 222.057,264.247 216.5,263.5C 212.82,264.828 209.153,264.828 205.5,263.5C 205.168,251.482 205.501,239.482 206.5,227.5C 221.295,226.849 235.961,226.182 250.5,225.5 Z"/></g>
<g><path style="opacity:1" fill="#757575" d="M 209.5,378.5 C 212.5,378.5 215.5,378.5 218.5,378.5C 219.209,379.404 220.209,379.737 221.5,379.5C 220.432,380.434 219.099,380.768 217.5,380.5C 214.833,379.833 212.167,379.167 209.5,378.5 Z"/></g>
<g><path style="opacity:1" fill="#c0cebf" d="M 395.5,402.5 C 396.002,400.915 397.002,400.415 398.5,401C 397.756,402.039 396.756,402.539 395.5,402.5 Z"/></g>
<g><path style="opacity:1" fill="#bccfbb" d="M 395.5,402.5 C 395.027,403.906 394.027,404.573 392.5,404.5C 392.973,403.094 393.973,402.427 395.5,402.5 Z"/></g>
<g><path style="opacity:1" fill="#fcfcfc" d="M 392.5,404.5 C 388.732,407.225 384.732,409.725 380.5,412C 369.387,415.929 358.387,420.262 347.5,425C 328.04,435.222 307.707,443.556 286.5,450C 262.056,454.475 237.389,456.641 212.5,456.5C 197.429,455.14 182.429,455.474 167.5,457.5C 159.167,457.5 150.833,457.5 142.5,457.5C 122.159,455.166 101.825,455.166 81.5,457.5C 79.8333,457.167 78.1667,456.833 76.5,456.5C 84.3493,447.817 92.6826,439.65 101.5,432C 107.111,427.214 113.111,423.047 119.5,419.5C 145.981,419.385 172.481,418.718 199,417.5C 209.34,417.647 219.673,417.981 230,418.5C 241.109,417.089 252.275,416.422 263.5,416.5C 287.83,417.432 312.163,417.599 336.5,417C 349.927,415.598 363.261,413.598 376.5,411C 381.968,409.097 387.301,406.93 392.5,404.5 Z"/></g>
<g><path style="opacity:1" fill="#989898" d="M 74.5,437.5 C 75.6484,441.981 75.8151,446.648 75,451.5C 74.2828,450.956 73.7828,450.289 73.5,449.5C 74.4834,445.702 74.8168,441.702 74.5,437.5 Z"/></g>
<g><path style="opacity:1" fill="#989898" d="M 142.5,457.5 C 150.833,457.5 159.167,457.5 167.5,457.5C 167.842,458.338 168.508,458.672 169.5,458.5C 168.432,459.434 167.099,459.768 165.5,459.5C 157.833,458.833 150.167,458.167 142.5,457.5 Z"/></g>
</svg>
